<svg viewBox="0 0 28 28" fill="none" xmlns="http://www.w3.org/2000/svg">
	<path fill-rule="evenodd" clip-rule="evenodd" d="M34.9596 2.73259L30.6184 12.0423L26.2774 2.73259C26.2747 2.72705 26.2718 2.72175 26.2692 2.7162C26.2463 2.66753 26.2218 2.61969 26.1972 2.57174C26.186 2.54993 26.1754 2.52752 26.1639 2.50583C26.1361 2.45378 26.1067 2.40245 26.077 2.35125C26.0673 2.3345 26.0581 2.31715 26.0482 2.30052C26.0131 2.24196 25.9765 2.18425 25.9388 2.12726C25.9334 2.11883 25.9283 2.11015 25.9228 2.10196C25.8802 2.0381 25.836 1.97508 25.7901 1.91315C25.7658 1.88026 25.74 1.84857 25.7148 1.8164C25.6924 1.78773 25.6708 1.75869 25.6477 1.73062C25.6199 1.69652 25.5906 1.66374 25.5618 1.63061C25.54 1.60543 25.5189 1.57976 25.4964 1.55494C25.467 1.52241 25.4363 1.49133 25.4061 1.45988C25.3829 1.43554 25.3602 1.41072 25.3363 1.38674C25.306 1.35638 25.2745 1.32746 25.2437 1.29806C25.2185 1.27433 25.194 1.24999 25.1683 1.22662C25.1355 1.19698 25.1018 1.1689 25.0684 1.14023C25.0432 1.11866 25.0184 1.09637 24.9927 1.07516C24.9522 1.04203 24.9107 1.01046 24.8692 0.978772C24.8493 0.96359 24.8302 0.947686 24.8099 0.932746C24.6839 0.839247 24.5534 0.752617 24.4194 0.672492C24.4097 0.666588 24.3994 0.661287 24.3897 0.655503C24.3316 0.621526 24.2733 0.588271 24.214 0.556824C24.1967 0.547546 24.1789 0.539233 24.1615 0.530317C24.1093 0.503207 24.0566 0.4767 24.0035 0.451638C23.9986 0.449229 23.9939 0.446698 23.989 0.444409C23.9677 0.434529 23.9463 0.426095 23.9249 0.416576C23.8809 0.396696 23.8369 0.376936 23.7922 0.358622C23.756 0.343681 23.7198 0.330066 23.6835 0.31621C23.6492 0.302956 23.6149 0.289582 23.5804 0.277172C23.5358 0.261147 23.4911 0.246448 23.4463 0.231989C23.4199 0.223435 23.3936 0.214759 23.367 0.206566C23.316 0.190903 23.2648 0.176685 23.2135 0.162829C23.1924 0.157166 23.1714 0.151503 23.1505 0.146082C23.0955 0.132105 23.0403 0.119454 22.9851 0.107525C22.9665 0.103429 22.9478 0.0994528 22.9291 0.0954767C22.8729 0.0841508 22.8167 0.0739094 22.7604 0.0646318C22.7409 0.0612582 22.7215 0.0581255 22.702 0.0552338C22.6474 0.0467997 22.5928 0.0395704 22.5383 0.0330641C22.5151 0.0302928 22.4921 0.0278831 22.469 0.0254733C22.4187 0.0202924 22.3685 0.0159548 22.3181 0.0125812C22.289 0.0104124 22.2598 0.00872555 22.2305 0.00715921C22.1868 0.00499043 22.1429 0.00330361 22.0992 0.0023397C22.0627 0.00149629 22.0262 0.00101434 21.9897 0.00101434C21.9532 0.00101434 21.9165 0.00149629 21.8802 0.0023397C21.8363 0.00330361 21.7926 0.00499043 21.7487 0.00715921C21.7195 0.00872555 21.6903 0.0104124 21.6611 0.0125812C21.6109 0.0159548 21.5606 0.0202924 21.5103 0.0254733C21.4871 0.0278831 21.4641 0.0302928 21.4411 0.0330641C21.3865 0.0395704 21.3319 0.0467997 21.2774 0.0552338C21.2578 0.0581255 21.2383 0.0612582 21.2189 0.0646318C21.1626 0.0739094 21.1064 0.0841508 21.0502 0.0954767C21.0316 0.0994528 21.0128 0.103429 20.9941 0.107525C20.9389 0.119454 20.8838 0.132105 20.8289 0.146082C20.8078 0.151503 20.7868 0.157166 20.7659 0.162829C20.7146 0.176685 20.6633 0.190903 20.6123 0.206566C20.5858 0.214759 20.5595 0.223435 20.533 0.231989C20.4883 0.246448 20.4436 0.261147 20.399 0.277172C20.3644 0.289582 20.3301 0.302956 20.2957 0.31621C20.2595 0.330066 20.2232 0.343681 20.1872 0.358622C20.1425 0.376936 20.0984 0.396696 20.0544 0.416576C20.0331 0.426095 20.0115 0.434529 19.9904 0.444409C19.9855 0.446698 19.9808 0.449229 19.9758 0.451638C19.9226 0.4767 19.8701 0.503207 19.8178 0.530317C19.8004 0.539233 19.7826 0.547546 19.7654 0.556824C19.7061 0.588271 19.6476 0.621526 19.5897 0.655503C19.5798 0.661287 19.5697 0.666588 19.5599 0.672492C19.4258 0.752617 19.2955 0.839247 19.1694 0.932746C19.1492 0.947686 19.13 0.96359 19.1101 0.978772C19.0687 1.01046 19.0271 1.04203 18.9866 1.07516C18.9609 1.09637 18.9362 1.11866 18.911 1.14023C18.8775 1.1689 18.8437 1.19698 18.8111 1.22662C18.7854 1.24999 18.7608 1.27433 18.7357 1.29806C18.7047 1.32746 18.6733 1.35638 18.6429 1.38674C18.619 1.41072 18.5964 1.43554 18.5731 1.45988C18.5429 1.49133 18.5123 1.52241 18.4829 1.55494C18.4605 1.57976 18.4393 1.60543 18.4175 1.63061C18.3888 1.66374 18.3595 1.69652 18.3316 1.73062C18.3085 1.75869 18.2869 1.78773 18.2646 1.8164C18.2394 1.84857 18.2136 1.88026 18.1893 1.91315C18.1433 1.97508 18.0991 2.0381 18.0565 2.10196C18.0509 2.11015 18.0459 2.11883 18.0405 2.12726C18.0029 2.18425 17.9661 2.24196 17.931 2.30052C17.9212 2.31715 17.912 2.3345 17.9023 2.35125C17.8726 2.40245 17.8431 2.45378 17.8154 2.50583C17.8039 2.52752 17.7933 2.54993 17.782 2.57174C17.7575 2.61969 17.7331 2.66753 17.7102 2.7162C17.7075 2.72175 17.7047 2.72705 17.702 2.73259L13.7598 11.187L18.3036 20.9315C18.5826 21.53 18.7433 22.1538 18.7953 22.7763L21.9897 15.926L26.3309 25.2357C26.3333 25.2409 26.336 25.2458 26.3386 25.2511C26.3625 25.3023 26.3882 25.3527 26.4141 25.4032C26.424 25.4226 26.4335 25.4424 26.4436 25.4614C26.4734 25.5173 26.5047 25.5724 26.5366 25.6271C26.5445 25.6402 26.5516 25.6539 26.5594 25.6669C26.6392 25.8004 26.7254 25.9303 26.8186 26.0559C26.8385 26.0829 26.8597 26.1085 26.88 26.135C26.9068 26.1696 26.933 26.2046 26.961 26.2385C26.9858 26.2689 27.0118 26.2979 27.0375 26.3276C27.0623 26.3565 27.0867 26.3859 27.1122 26.4141C27.1388 26.4434 27.1664 26.4713 27.1935 26.4998C27.2198 26.5273 27.2455 26.5554 27.2725 26.5824C27.2998 26.6096 27.3281 26.6357 27.3561 26.6623C27.3842 26.6889 27.4117 26.7163 27.4405 26.7424C27.4697 26.7688 27.4999 26.7939 27.5298 26.8195C27.5586 26.8442 27.5867 26.8695 27.6161 26.8937C27.6512 26.9225 27.6873 26.9495 27.7231 26.9774C27.7485 26.9969 27.7731 27.0171 27.7989 27.0362C27.9245 27.1293 28.0545 27.2157 28.188 27.2956C28.2003 27.3029 28.2131 27.3095 28.2254 27.3167C28.2809 27.3493 28.3367 27.3811 28.3935 27.4112C28.4122 27.4211 28.4316 27.4304 28.4505 27.4402C28.5013 27.4663 28.5524 27.4921 28.604 27.5164C28.6092 27.5188 28.614 27.5215 28.619 27.524C28.6412 27.5343 28.6634 27.5431 28.6855 27.5529C28.7287 27.5722 28.7718 27.5916 28.8154 27.6096C28.8522 27.6247 28.8892 27.6386 28.9262 27.6528C28.9598 27.6658 28.9934 27.6788 29.0272 27.691C29.0723 27.7072 29.1176 27.7221 29.163 27.7368C29.1888 27.7451 29.2146 27.7537 29.2405 27.7616C29.2921 27.7774 29.3438 27.7919 29.3956 27.8057C29.4161 27.8113 29.4365 27.8169 29.4571 27.8221C29.5124 27.8362 29.5679 27.849 29.6234 27.861C29.642 27.865 29.6602 27.869 29.6786 27.8728C29.7351 27.8842 29.7916 27.8945 29.848 27.9038C29.8674 27.9072 29.8866 27.9102 29.9057 27.9131C29.9605 27.9215 30.0154 27.9289 30.0702 27.9352C30.0931 27.938 30.1158 27.9405 30.1389 27.943C30.1892 27.9481 30.2396 27.9523 30.2901 27.9558C30.3192 27.9579 30.3483 27.9596 30.3774 27.9611C30.4213 27.9633 30.4651 27.965 30.509 27.9661C30.5455 27.9669 30.5819 27.9673 30.6184 27.9673C30.655 27.9673 30.6914 27.9669 30.7279 27.9661C30.7717 27.965 30.8156 27.9633 30.8595 27.9611C30.8885 27.9596 30.9177 27.9579 30.9469 27.9558C30.9972 27.9523 31.0477 27.9481 31.0979 27.943C31.121 27.9405 31.1437 27.938 31.1666 27.9352C31.2216 27.9289 31.2763 27.9215 31.3311 27.9131C31.3504 27.9102 31.3695 27.9072 31.3888 27.9038C31.4453 27.8945 31.5018 27.8842 31.5582 27.8728C31.5766 27.869 31.595 27.865 31.6134 27.861C31.6689 27.849 31.7244 27.8362 31.7798 27.8221C31.8004 27.8169 31.8209 27.8113 31.8412 27.8057C31.893 27.7919 31.9447 27.7774 31.9963 27.7616C32.0222 27.7537 32.048 27.7451 32.0739 27.7368C32.1192 27.7221 32.1645 27.7072 32.2096 27.691C32.2435 27.6788 32.2772 27.6658 32.3108 27.6528C32.3478 27.6386 32.3846 27.6247 32.4215 27.6096C32.4651 27.5916 32.5084 27.5721 32.5514 27.5528C32.5736 27.5429 32.5957 27.5343 32.6178 27.524C32.6228 27.5216 32.6277 27.519 32.6327 27.5164C32.6846 27.4921 32.7357 27.4662 32.7868 27.4399C32.8055 27.4303 32.8248 27.4211 32.8432 27.4112C32.9002 27.381 32.9563 27.3491 33.0123 27.3163C33.0243 27.3093 33.0367 27.3027 33.0488 27.2956C33.1824 27.2157 33.3124 27.1293 33.4381 27.036C33.4632 27.0175 33.4873 26.9977 33.512 26.9787C33.5484 26.9505 33.5852 26.9229 33.6208 26.8937C33.65 26.8696 33.6779 26.8446 33.7065 26.82C33.7365 26.7942 33.767 26.7689 33.7964 26.7424C33.8249 26.7164 33.8524 26.6893 33.8802 26.6628C33.9084 26.636 33.937 26.6098 33.9645 26.5823C33.9912 26.5555 34.0168 26.5276 34.0429 26.5002C34.0701 26.4717 34.098 26.4435 34.1246 26.4141C34.1503 26.3856 34.1748 26.3561 34.1999 26.327C34.2253 26.2976 34.2511 26.2687 34.2758 26.2385C34.304 26.2043 34.3306 26.169 34.3576 26.1339C34.3777 26.1078 34.3986 26.0825 34.4182 26.0559C34.5114 25.9302 34.5978 25.8003 34.6775 25.6668C34.6851 25.654 34.6921 25.6408 34.6996 25.6281C34.7319 25.5731 34.7633 25.5177 34.7932 25.4614C34.8033 25.4425 34.8127 25.4228 34.8226 25.4034C34.8485 25.3529 34.8743 25.3023 34.8984 25.2509C34.9009 25.2458 34.9035 25.2409 34.9061 25.2357L43.5348 6.73134C44.639 4.36327 43.6144 1.54856 41.2465 0.444409C38.8786 -0.659861 36.0637 0.364646 34.9596 2.73259Z" fill="white" />
	<path fill-rule="evenodd" clip-rule="evenodd" d="M15.3601 27.524C12.9921 28.6282 10.1773 27.6037 9.07313 25.2357L0.444409 6.73134C-0.65986 4.36327 0.364646 1.54856 2.73259 0.444409C5.10065 -0.659861 7.91537 0.364646 9.01951 2.73259L17.6484 21.237C18.7525 23.605 17.728 26.4197 15.3601 27.524Z" fill="white" />
</svg>
